<svg xmlns="http://www.w3.org/2000/svg" viewBox="0 0 1261 1261" width="1261" height="1261"><defs></defs><g transform="matrix(1,0,0,1,-434.646585461,161.485343014)">
<g>
	<g transform="matrix(1,0,0,1,-2,-1)">
		<path d="M894.701264,915.992532C862.140922,915.905015 632.931734,907.405801 559.56033,687.787341 C394.852834,194.777743 818.01993,7.222939 837.345802,15.169308 C858.82594,24.001463 446.045705,170.294196 594.059873,674.432679 C620.625915,764.917018 684.021167,806.505194 738.313186,825.596742 C581.068412,590.926779 760.063451,-24.094697 1240.772051,17.763954 C1424.722895,33.781837 1522.3143,195.521635 1548.014418,245.037039 C1607.492674,359.631448 1587.359363,374.454235 1587.359363,374.454235 C1587.359363,374.454235 1504.772205,456.823433 1330.302502,406.342459 C1315.422799,402.037173 1299.223284,454.110288 1299.223284,454.110288 C1299.223284,454.110288 1510.011006,574.270595 1437.717043,652.977732 C1422.180205,669.892838 1368.527538,660.25257 1370.670222,623.826941 C1371.253238,613.915672 1311.982392,565.078191 1300.553532,603.571805 C1280.092883,672.485442 1435.761509,731.868992 1459.660919,711.952817 C1483.560329,692.036642 1500.186653,585.000072 1555.991274,613.496049 C1593.341422,632.568465 1523.40923,806.604261 1485.965517,814.904352 C1460.224905,820.610234 1374.888088,797.698186 1374.888088,797.698186 C1374.888088,797.698186 1377.410733,991.022992 894.701264,915.992532 L 894.701264,915.992532 ZM1067.414425,-160.485343C719.366333,-160.485343 436.646585,122.234404 436.646585,470.282496 C436.646585,818.330589 719.366333,1101.050336 1067.414425,1101.050336 C1415.462517,1101.050336 1698.182264,818.330589 1698.182264,470.282496 C1698.182264,122.234404 1415.462517,-160.485343 1067.414425,-160.485343 L 1067.414425,-160.485343 Z" fill="#ffffff"/>
	</g>
	<g transform="matrix(1,0,0,1,-2,-1)">
		<g transform="matrix(1.625213199,0,0,1.625213199,-837.345727283,-120.293255758)">
			<path d="M1350.704125,174.035464C1344.625651,153.730165 1276.719078,142.555424 1275.431829,188.97886 C1274.367233,227.372563 1369.526288,236.911377 1350.704125,174.035464 L 1350.704125,174.035464 ZM1335.289221,172.191062C1345.117888,176.870911 1348.535244,181.050602 1341.912232,188.611705 C1336.379455,194.928151 1323.247381,198.847268 1317.527507,192.525303 C1311.807634,186.203337 1308.496128,164.528026 1335.289221,172.191062 L 1335.289221,172.191062 ZM1327.677625,199.565646C1333.081545,202.138683 1334.960449,204.436728 1331.319037,208.593914 C1328.277049,212.066772 1321.056875,214.221551 1317.91202,210.745657 C1314.767164,207.269764 1312.946458,195.352416 1327.677625,199.565646 L 1327.677625,199.565646 Z" fill="#ffffff"/>
		</g>
	</g>
	<g transform="matrix(1,0,0,1,-2,-1)">
		<path d="M1126.067229,655.614301C1085.147921,599.496392 1158.574793,609.356692 1023.114255,569.810025 C906.58962,535.79155 981.215646,405.779019 1124.339716,491.952964 C1148.325566,506.394667 1179.532359,516.249518 1196.794106,568.993745 C1225.40273,656.408985 1153.88117,693.759133 1126.067229,655.614301 Z" fill="#ffffff"/>
	</g>
	<g transform="matrix(1,0,0,1,-2,-1)">
		<path d="M1093.342835,118.637199C1093.342835,118.637199 1079.397874,60.970389 1042.033962,51.935664 C997.129413,41.077586 893.708788,95.79359 900.795499,173.156848 C909.238674,265.328182 992.915996,307.06499 1015.981522,321.614143 C1048.161181,341.912263 1101.683935,329.593896 1089.68093,329.792839 C992.643177,331.401191 967.624977,217.019142 972.120491,184.290429 C988.285443,66.604644 1093.342835,118.637199 1093.342835,118.637199 Z" fill="#ffffff"/>
	</g>
	<g transform="matrix(1,0,0,1,-2,-1)">
		<path d="M1153.484851,859.223119C1161.501534,859.102175 1207.00342,891.965636 1235.733622,876.536453 C1278.646558,853.490617 1277.851874,759.717905 1326.796237,775.024447 C1377.597107,790.91158 1317.586074,981.434741 1254.637413,968.646016 C1211.873347,959.958018 1154.034824,946.05778 1124.856767,926.65816 C1095.338931,907.032632 1101.499442,860.007395 1153.484851,859.223119 Z" fill="#ffffff"/>
	</g>
	<g transform="matrix(1,0,0,1,-2,-1)">
		<path d="M1513.72157,330.258836C1513.72157,330.258836 1590.590191,363.783076 1594.357339,285.389086 C1595.480764,262.01073 1611.72577,323.8578 1606.484499,350.34001 C1601.580684,375.117179 1585.71906,416.7325 1547.680839,382.196541 C1524.536219,361.182897 1513.72157,330.258836 1513.72157,330.258836 Z" fill="#ffffff"/>
	</g>
</g></g></svg>