<svg xmlns="http://www.w3.org/2000/svg" viewBox="0 0 1087 955" width="1087" height="955"><defs></defs><g transform="matrix(1,0,0,1,-517.58060067,-12.927981197)">
<g>
	<g transform="matrix(1,0,0,1,-2,-1)">
		<path d="M938.57959,90.163237C914.691442,111.557995 897.787269,140.317008 900.795499,173.156848 C909.238674,265.328182 992.915996,307.06499 1015.981522,321.614143 C1048.161181,341.912263 1101.683935,329.593896 1089.68093,329.792839 C992.643177,331.401191 967.624977,217.019142 972.120491,184.290429 C988.285443,66.604644 1093.342835,118.637199 1093.342835,118.637199 C1093.342835,118.637199 1079.397874,60.970389 1042.033962,51.935664 C1031.423562,49.370032 1017.546096,50.465529 1002.631389,54.655846 C1070.816725,23.836763 1149.603732,8.999447 1238.772051,16.763954 C1422.722895,32.781837 1520.3143,194.521635 1546.014418,244.037039 C1564.413831,279.486462 1575.194775,305.38819 1581.31001,324.256973 C1558.410645,349.748808 1513.72157,330.258836 1513.72157,330.258836 C1513.72157,330.258836 1524.536219,361.182897 1547.680839,382.196541 C1552.167391,386.270007 1556.345426,389.284067 1560.233351,391.391306 C1523.860149,412.292341 1447.538903,439.842258 1328.302502,405.342459 C1313.422799,401.037173 1297.223284,453.110288 1297.223284,453.110288 C1297.223284,453.110288 1508.011006,573.270595 1435.717043,651.977732 C1420.180205,668.892838 1366.527538,659.25257 1368.670222,622.826941 C1369.253238,612.915672 1309.982392,564.078191 1298.553532,602.571805 C1278.092883,671.485442 1433.761509,730.868992 1457.660919,710.952817 C1481.560329,691.036642 1498.186653,584.000072 1553.991274,612.496049 C1591.341422,631.568465 1521.40923,805.604261 1483.965517,813.904352 C1458.224905,819.610234 1372.888088,796.698186 1372.888088,796.698186 C1372.888088,796.698186 1373.32499,830.18046 1339.043351,863.868927 C1350.026135,821.945972 1348.909604,781.940037 1326.796237,775.024447 C1277.851874,759.717905 1278.646558,853.490617 1235.733622,876.536453 C1207.00342,891.965636 1161.501534,859.102175 1153.484851,859.223119 C1101.499442,860.007395 1095.338931,907.032632 1124.856767,926.65816 C1127.230799,928.236583 1129.794564,929.7786 1132.524505,931.284365 C1070.1619,934.47434 991.619949,930.368063 892.701264,914.992532 C860.140922,914.905015 630.931734,906.405802 557.56033,686.787341 C392.852834,193.777743 816.01993,6.222939 835.345802,14.169308 C856.82594,23.001463 444.045705,169.294196 592.059873,673.432679 C618.625915,763.917018 682.021167,805.505194 736.313186,824.596742 C617.864844,647.826047 690.206088,255.235853 938.57959,90.163237 L 938.57959,90.163237 ZM1126.067229,655.614301C1153.88117,693.759133 1225.40273,656.408985 1196.794106,568.993745 C1179.532359,516.249518 1148.325566,506.394667 1124.339716,491.952964 C981.215646,405.779019 906.58962,535.79155 1023.114255,569.810025 C1158.574793,609.356692 1085.147921,599.496392 1126.067229,655.614301 L 1126.067229,655.614301 ZM1357.836445,162.551477C1347.957628,129.551037 1237.594969,111.389701 1235.502916,186.837682 C1233.77272,249.235634 1388.426472,264.738242 1357.836445,162.551477 L 1357.836445,162.551477 ZM1332.783938,159.553931C1348.757619,167.159684 1354.311551,173.952572 1343.547745,186.240976 C1334.555802,196.506548 1313.213382,202.875949 1303.917368,192.601407 C1294.621353,182.326865 1289.23945,147.099863 1332.783938,159.553931 L 1332.783938,159.553931 ZM1320.413472,204.043466C1329.195995,208.225201 1332.249614,211.960013 1326.331543,218.716326 C1321.387664,224.360462 1309.653343,227.862436 1304.542282,222.213368 C1299.431221,216.5643 1296.472185,197.196068 1320.413472,204.043466 L 1320.413472,204.043466 Z" fill="#fefefe"/>
	</g>
</g></g></svg>